<svg id="Layer_1" enable-background="new 0 0 256 256" height="512" viewBox="0 0 256 256" width="512" xmlns="http://www.w3.org/2000/svg"><g><g><path d="m242.689 224.5h-229.378c-2.933 0-5.311-2.378-5.311-5.311v-60.324c0-2.933 2.378-5.311 5.311-5.311h229.378c2.933 0 5.311 2.378 5.311 5.311v60.324c0 2.933-2.378 5.311-5.311 5.311z" fill="#6bdddd"/></g><g><path d="m8 172.75h240v5h-240z" fill="#e0ebfc"/></g><g><path d="m199.088 163.971h-142.177c-1.104 0-2-.896-2-2v-89.6c0-1.104.896-2 2-2h142.177c1.104 0 2 .896 2 2v89.601c0 1.104-.895 1.999-2 1.999zm-140.177-4h138.177v-85.6h-138.177z" fill="#3762cc"/></g><g><path d="m222.339 174.75c-.286 0-.573-.062-.841-.186l-23.251-10.779c-.707-.328-1.159-1.036-1.159-1.814v-89.6c0-.485.177-.954.497-1.319l23.251-26.499c.549-.625 1.43-.846 2.208-.552.779.293 1.295 1.039 1.295 1.872v126.877c0 .683-.348 1.318-.923 1.686-.327.208-.701.314-1.077.314zm-21.251-14.056 19.251 8.924v-118.434l-19.251 21.94z" fill="#3762cc"/></g><g><path d="m199.088 74.371h-142.177c-.576 0-1.124-.248-1.503-.681l-23.25-26.499c-.518-.59-.643-1.429-.318-2.144.324-.715 1.037-1.175 1.822-1.175h188.679c.785 0 1.498.459 1.822 1.175.324.715.199 1.554-.318 2.144l-23.253 26.499c-.38.433-.928.681-1.504.681zm-141.271-4h140.366l19.741-22.499h-179.848z" fill="#3762cc"/></g><g><path d="m33.661 174.75c-.375 0-.75-.106-1.077-.314-.575-.367-.923-1.003-.923-1.686v-126.878c0-.833.516-1.578 1.295-1.872.78-.292 1.66-.073 2.208.553l23.25 26.499c.32.365.497.833.497 1.319v89.601c0 .779-.452 1.487-1.159 1.814l-23.25 10.779c-.268.123-.555.185-.841.185zm2-123.566v118.434l19.25-8.924v-87.57z" fill="#3762cc"/></g><g><path d="m178.765 74.371h-101.53c-.689 0-1.329-.354-1.695-.938l-16.603-26.499c-.386-.617-.407-1.394-.055-2.031.353-.636 1.022-1.031 1.75-1.031h134.737c.728 0 1.397.395 1.75 1.031.352.637.331 1.414-.055 2.031l-16.604 26.499c-.366.583-1.006.938-1.695.938zm-100.423-4h99.316l14.097-22.499h-127.51z" fill="#3762cc"/></g><g><path d="m158.459 74.371h-60.918c-.833 0-1.579-.517-1.872-1.296l-9.962-26.499c-.231-.614-.146-1.303.228-1.842.374-.54.988-.861 1.645-.861h80.843c.656 0 1.271.322 1.645.861.374.54.458 1.228.228 1.842l-9.962 26.499c-.296.779-1.042 1.296-1.875 1.296zm-59.533-4h58.148l8.458-22.499h-75.065z" fill="#3762cc"/></g><g><path d="m138.153 74.371h-20.306c-1.008 0-1.859-.75-1.984-1.751l-3.321-26.499c-.071-.569.105-1.142.485-1.572.379-.43.926-.677 1.5-.677h26.947c.574 0 1.12.247 1.5.677s.556 1.002.485 1.572l-3.321 26.499c-.126 1-.977 1.751-1.985 1.751zm-18.541-4h16.775l2.82-22.499h-22.415z" fill="#3762cc"/></g><g><path d="m77.207 163.971c-1.104 0-2-.896-2-2v-89.6c0-1.104.896-2 2-2s2 .896 2 2v89.601c0 1.104-.895 1.999-2 1.999z" fill="#3762cc"/></g><g><path d="m97.502 163.971c-1.104 0-2-.896-2-2v-89.6c0-1.104.896-2 2-2s2 .896 2 2v89.601c0 1.104-.895 1.999-2 1.999z" fill="#3762cc"/></g><g><path d="m117.905 163.971c-1.104 0-2-.896-2-2v-89.6c0-1.104.896-2 2-2s2 .896 2 2v89.601c0 1.104-.895 1.999-2 1.999z" fill="#3762cc"/></g><g><path d="m138.201 163.971c-1.104 0-2-.896-2-2v-89.6c0-1.104.896-2 2-2s2 .896 2 2v89.601c0 1.104-.895 1.999-2 1.999z" fill="#3762cc"/></g><g><path d="m158.497 163.971c-1.104 0-2-.896-2-2v-89.6c0-1.104.896-2 2-2s2 .896 2 2v89.601c0 1.104-.895 1.999-2 1.999z" fill="#3762cc"/></g><g><path d="m178.792 163.971c-1.104 0-2-.896-2-2v-89.6c0-1.104.896-2 2-2s2 .896 2 2v89.601c0 1.104-.895 1.999-2 1.999z" fill="#3762cc"/></g><g><path d="m178.792 163.971c-1.104 0-2-.896-2-2v-89.6c0-1.104.896-2 2-2s2 .896 2 2v89.601c0 1.104-.895 1.999-2 1.999z" fill="#3762cc"/></g><g><path d="m199.088 163.971c-1.104 0-2-.896-2-2v-89.6c0-1.104.896-2 2-2s2 .896 2 2v89.601c0 1.104-.895 1.999-2 1.999z" fill="#3762cc"/></g><g><path d="m199.088 94.666h-142.177c-1.104 0-2-.896-2-2s.896-2 2-2h142.177c1.104 0 2 .896 2 2s-.896 2-2 2z" fill="#3762cc"/></g><g><path d="m199.088 94.666h-142.177c-1.104 0-2-.896-2-2s.896-2 2-2h142.177c1.104 0 2 .896 2 2s-.896 2-2 2z" fill="#3762cc"/></g><g><path d="m199.088 114.962h-142.177c-1.104 0-2-.896-2-2s.896-2 2-2h142.177c1.104 0 2 .896 2 2s-.896 2-2 2z" fill="#3762cc"/></g><g><path d="m199.088 135.258h-142.177c-1.104 0-2-.896-2-2s.896-2 2-2h142.177c1.104 0 2 .896 2 2s-.896 2-2 2z" fill="#3762cc"/></g><g><path d="m199.088 155.553h-142.177c-1.104 0-2-.896-2-2s.896-2 2-2h142.177c1.104 0 2 .896 2 2s-.896 2-2 2z" fill="#3762cc"/></g><g><path d="m33.661 140.055c-.456 0-.902-.156-1.262-.448-.467-.38-.738-.95-.738-1.552v-57.039c0-.697.362-1.343.957-1.707.594-.363 1.335-.391 1.955-.073l23.25 11.913c.668.342 1.088 1.029 1.088 1.78v40.281c0 .947-.665 1.765-1.592 1.958l-23.25 4.846c-.136.028-.273.041-.408.041zm2-55.767v51.307l19.25-4.012v-37.432z" fill="#3762cc"/></g><g><path d="m33.661 164.757c-.8 0-1.555-.483-1.863-1.273-.402-1.029.106-2.188 1.135-2.59l23.25-9.081c1.028-.401 2.188.106 2.59 1.135s-.106 2.188-1.135 2.59l-23.25 9.081c-.239.094-.485.138-.727.138z" fill="#3762cc"/></g><g><path d="m56.911 114.962h-23.25c-1.104 0-2-.896-2-2s.896-2 2-2h23.25c1.104 0 2 .896 2 2s-.896 2-2 2z" fill="#3762cc"/></g><g><path d="m222.339 140.055c-.136 0-.272-.014-.408-.042l-23.25-4.846c-.927-.193-1.592-1.011-1.592-1.958v-40.28c0-.75.42-1.438 1.088-1.78l23.25-11.913c.621-.318 1.361-.29 1.955.073.595.363.957 1.01.957 1.707v57.039c0 .602-.271 1.172-.738 1.552-.36.292-.806.448-1.262.448zm-21.25-8.472 19.25 4.012v-51.307l-19.25 9.863z" fill="#3762cc"/></g><g><path d="m222.339 164.757c-.242 0-.488-.044-.727-.138l-23.25-9.081c-1.029-.402-1.537-1.562-1.135-2.59.402-1.029 1.564-1.538 2.59-1.135l23.25 9.081c1.029.402 1.537 1.562 1.135 2.59-.308.79-1.063 1.273-1.863 1.273z" fill="#3762cc"/></g><g><path d="m222.339 114.962h-23.25c-1.104 0-2-.896-2-2s.896-2 2-2h23.25c1.104 0 2 .896 2 2s-.895 2-2 2z" fill="#3762cc"/></g><g><path d="m210.714 169.36c-1.104 0-2-.896-2-2v-106.239h-161.428v106.239c0 1.104-.896 2-2 2s-2-.896-2-2v-108.239c0-1.104.896-2 2-2h165.429c1.104 0 2 .896 2 2v108.239c-.001 1.105-.896 2-2.001 2z" fill="#3762cc"/></g><g><path d="m20.21 44.076v125.674c0 1.657 1.343 3 3 3h10.45v-120.59c0-3.473 2.815-6.288 6.288-6.288h176.104c3.473 0 6.288 2.815 6.288 6.288v120.59h10.451c1.657 0 3-1.343 3-3v-125.674c0-6.945-5.63-12.576-12.576-12.576h-190.43c-6.945 0-12.575 5.63-12.575 12.576z" fill="#a4c9ff"/></g><g><path d="m232.79 174.75h-10.451c-1.104 0-2-.896-2-2v-120.59c0-2.364-1.923-4.288-4.288-4.288h-176.103c-2.364 0-4.288 1.923-4.288 4.288v120.59c0 1.104-.896 2-2 2h-10.45c-2.757 0-5-2.243-5-5v-125.674c0-8.037 6.539-14.576 14.575-14.576h190.43c8.037 0 14.575 6.539 14.575 14.576v125.674c0 2.757-2.243 5-5 5zm-8.451-4h8.451c.551 0 1-.449 1-1v-125.674c0-5.832-4.744-10.576-10.575-10.576h-190.43c-5.831 0-10.575 4.744-10.575 10.576v125.674c0 .551.449 1 1 1h8.451v-118.59c0-4.57 3.718-8.288 8.288-8.288h176.104c4.57 0 8.288 3.718 8.288 8.288v118.59z" fill="#3762cc"/></g><g><circle cx="128" cy="169.789" fill="#e0ebfc" r="45"/></g><g><path d="m83.001 169.831 12.808-9.306-5.151-15.854c-4.835 7.175-7.658 15.817-7.658 25.118 0 .014.001.028.001.042z" fill="#4671c6"/></g><g><path d="m113.275 127.257 14.725 10.698 14.725-10.698c-4.614-1.597-9.568-2.467-14.725-2.467s-10.111.87-14.725 2.467z" fill="#4671c6"/></g><g><path d="m108.495 197.944-16.041-.56c5.14 6.611 12.082 11.752 20.09 14.681z" fill="#4671c6"/></g><g><path d="m143.459 212.064c8.007-2.929 14.948-8.069 20.088-14.68l-16.039.56z" fill="#4671c6"/></g><g><path d="m160.101 160.525 12.897 9.371c.001 0 .001 0 .001-.001.021-9.381-2.828-18.095-7.718-25.313z" fill="#4671c6"/></g><g><path d="m128 152.205-17.832 12.956 6.811 20.963h22.042l6.811-20.963z" fill="#4671c6"/></g><g><path d="m139.021 188.124h-22.042c-.866 0-1.634-.558-1.902-1.382l-6.812-20.963c-.268-.824.026-1.727.727-2.236l17.833-12.956c.701-.509 1.65-.509 2.352 0l17.833 12.956c.701.509.994 1.412.727 2.236l-6.812 20.963c-.27.824-1.038 1.382-1.904 1.382zm-20.589-4h19.136l5.914-18.199-15.482-11.248-15.481 11.248z" fill="#3762cc"/></g><g><path d="m128 216.79c-25.916 0-47-21.084-47-47s21.084-47 47-47 47 21.084 47 47-21.084 47-47 47zm0-90c-23.71 0-43 19.29-43 43s19.29 43 43 43 43-19.29 43-43-19.29-43-43-43z" fill="#3762cc"/></g><g><path d="m172.758 171.722c-.408 0-.819-.124-1.174-.382l-12.659-9.197c-.701-.509-.994-1.412-.727-2.236l5.039-15.506c.342-1.051 1.472-1.625 2.521-1.284 1.05.341 1.625 1.469 1.284 2.52l-4.59 14.125 11.483 8.343c.894.649 1.091 1.9.442 2.793-.391.539-1.001.824-1.619.824z" fill="#3762cc"/></g><g><path d="m145.832 167.161c-.843 0-1.627-.537-1.902-1.382-.341-1.051.234-2.179 1.284-2.521l14.269-4.636c1.053-.339 2.179.233 2.521 1.284s-.234 2.179-1.284 2.521l-14.269 4.636c-.206.066-.414.098-.619.098z" fill="#3762cc"/></g><g><path d="m143.534 213.806c-.183 0-.368-.025-.552-.078-1.062-.304-1.676-1.412-1.371-2.474l3.975-13.862c.239-.833.987-1.417 1.853-1.448l15.652-.546c1.101-.015 2.03.825 2.069 1.929.038 1.104-.825 2.03-1.929 2.069l-14.2.496-3.574 12.465c-.253.877-1.053 1.449-1.923 1.449z" fill="#3762cc"/></g><g><path d="m147.509 199.943c-.622 0-1.235-.29-1.626-.833l-8.487-11.819c-.645-.897-.439-2.147.458-2.791.895-.644 2.146-.44 2.791.458l8.487 11.819c.645.897.439 2.147-.458 2.791-.353.253-.76.375-1.165.375z" fill="#3762cc"/></g><g><path d="m108.497 199.944c-.024 0-.048 0-.071-.001l-.659-.023c-.042-.001-.74-.026-15.108-.527-1.104-.039-1.967-.965-1.929-2.069.039-1.104.957-1.985 2.069-1.929 15.118.527 15.123.528 15.141.528l.626.022c1.104.039 1.968.965 1.929 2.068-.039 1.081-.927 1.931-1.998 1.931z" fill="#3762cc"/></g><g><path d="m112.349 213.389c-.87 0-1.67-.572-1.921-1.449l-3.855-13.444c-.169-.588-.059-1.221.297-1.717l8.484-11.82c.644-.898 1.894-1.103 2.791-.459s1.103 1.894.459 2.791l-7.919 11.034 3.588 12.513c.305 1.062-.309 2.169-1.371 2.474-.185.051-.37.077-.553.077z" fill="#3762cc"/></g><g><path d="m83.356 171.574c-.618 0-1.228-.286-1.62-.824-.649-.894-.451-2.145.442-2.794l11.279-8.194-4.57-14.063c-.341-1.051.234-2.179 1.284-2.521 1.051-.338 2.179.233 2.521 1.284l5.019 15.445c.268.824-.026 1.727-.727 2.236l-12.454 9.048c-.355.259-.766.383-1.174.383z" fill="#3762cc"/></g><g><path d="m110.168 167.161c-.204 0-.411-.031-.615-.097l-14.359-4.635c-1.051-.339-1.628-1.467-1.289-2.518s1.468-1.628 2.518-1.289l14.359 4.635c1.051.339 1.628 1.467 1.289 2.518-.274.847-1.059 1.386-1.903 1.386z" fill="#3762cc"/></g><g><path d="m128 139.955c-.413 0-.825-.127-1.176-.382l-14.483-10.523c-.894-.649-1.091-1.9-.442-2.794.65-.894 1.901-1.09 2.794-.442l13.307 9.669 13.276-9.646c.894-.648 2.145-.451 2.794.442.649.894.451 2.145-.442 2.794l-14.453 10.5c-.35.255-.762.382-1.175.382z" fill="#3762cc"/></g><g><path d="m128 154.205c-1.104 0-2-.896-2-2v-14.25c0-1.104.896-2 2-2s2 .896 2 2v14.25c0 1.105-.896 2-2 2z" fill="#3762cc"/></g></g></svg>